<svg xmlns="http://www.w3.org/2000/svg" xmlns:xlink="http://www.w3.org/1999/xlink" width="16" height="16" viewBox="0 0 16 16">
  <defs>
    <path id="safari-pinned-tab-icon-a" d="M8.05910844,0.231590298 L14.7684097,6.94089156 C15.0771968,7.24967863 15.0771968,7.75032137 14.7684097,8.05910844 L8.05910844,14.7684097 C7.75032137,15.0771968 7.24967863,15.0771968 6.94089156,14.7684097 L0.231590298,8.05910844 C-0.077196766,7.75032137 -0.077196766,7.24967863 0.231590298,6.94089156 L6.94089156,0.231590298 C7.24967863,-0.077196766 7.75032137,-0.077196766 8.05910844,0.231590298 Z"/>
  </defs>
  <g fill="none" fill-rule="evenodd" transform="translate(.5 .5)">
    <mask id="safari-pinned-tab-icon-b" fill="#fff">
      <use xlink:href="#safari-pinned-tab-icon-a"/>
    </mask>
    <path fill="#000" d="M10.9443863,5.34204439 C10.8906467,5.28228603 10.8234723,5.22916749 10.7428629,5.18932858 C10.7361454,5.18932858 10.729428,5.17604894 10.7227105,5.16940912 L11.0384306,3.23722209 C11.0384306,3.22394245 11.0451481,3.21730263 11.0518655,3.21730263 L11.058583,3.21730263 C11.058583,3.21730263 11.0653004,3.21730263 11.0720179,3.22394245 L12.5162694,4.65150332 C12.5229868,4.65814314 12.5229868,4.66478296 12.5229868,4.67142277 C12.5229868,4.67806259 12.5162694,4.68470241 12.5095519,4.69134223 L10.9645387,5.34868421 L10.9578212,5.34868421 C10.9511038,5.34868421 10.9511038,5.34868421 10.9443863,5.34204439 Z M7.67298041,4.27301978 C7.65954539,4.14022417 7.61252283,4.00742857 7.53863024,3.8945523 C7.53191273,3.88791252 7.53191273,3.87463296 7.53863024,3.8613534 L9.15754982,1.3515164 C9.15754982,1.34487662 9.16426733,1.33823684 9.17098484,1.33823684 C9.17770234,1.33823684 9.17770234,1.33823684 9.18441985,1.34487662 L10.6219667,2.77242941 C10.6286842,2.77906919 10.6286842,2.78570897 10.6286842,2.79234875 L10.2525037,5.12291167 C10.2525037,5.13619123 10.2457862,5.14283101 10.2390687,5.14283101 C10.1517411,5.16939014 10.071131,5.20922882 10.0039559,5.26234706 C10.0039559,5.26898684 9.9972384,5.26898684 9.98380338,5.26898684 L7.68641543,4.29293912 C7.67969792,4.28629934 7.67298041,4.27965956 7.67298041,4.27301978 Z M12.9193375,5.0432845 L15.3846606,7.48671899 C15.3980956,7.49335876 15.3980956,7.51327807 15.3846606,7.51327807 L15.3712256,7.5265576 C15.3712256,7.53319737 15.3645081,7.53319737 15.3510731,7.53319737 L11.2265271,5.78693848 C11.2198096,5.78693848 11.2130921,5.77365894 11.2130921,5.76701918 C11.2130921,5.76037941 11.2198096,5.75373964 11.2265271,5.74709987 L12.9059025,5.03664474 C12.9059025,5.03664474 12.91262,5.03664474 12.9193375,5.0432845 Z M11.0183074,6.21189474 L14.9749272,7.88512359 C14.9816447,7.89176338 14.9816447,7.89840318 14.9816447,7.90504298 C14.9816447,7.91168277 14.9816447,7.91832257 14.9749272,7.92496237 L12.7850154,10.096176 C12.7850154,10.1028158 12.7782979,10.1028158 12.7648628,10.1028158 L10.3734254,9.60483101 C10.3599903,9.60483101 10.3532728,9.59819122 10.3532728,9.58491162 C10.3331202,9.39899731 10.2457925,9.23300238 10.098007,9.12012583 C10.0912895,9.11348603 10.0912895,9.10684624 10.0912895,9.10020644 L10.5144933,6.50404581 C10.5144933,6.49076621 10.5279283,6.48412641 10.5346459,6.48412641 C10.7227364,6.45756723 10.8839569,6.36461007 10.9914373,6.21853453 C10.9981548,6.21189474 11.0048723,6.21189474 11.0183074,6.21189474 Z M7.57222646,4.75113158 L9.73526236,5.66742243 C9.74197987,5.67406222 9.74869737,5.68070201 9.74869737,5.69398159 C9.74197987,5.72718053 9.73526236,5.76701927 9.73526236,5.806858 L9.73526236,5.8666161 C9.73526236,5.87325589 9.72854486,5.87989568 9.72182736,5.88653547 C9.72182736,5.88653547 4.97255288,7.91167105 4.96583537,7.91167105 C4.95911787,7.91167105 4.95240037,7.91167105 4.94568286,7.90503126 C4.93896536,7.89839148 4.93896536,7.8851119 4.94568286,7.87847211 L6.72582111,5.12295975 C6.73253861,5.11631996 6.73925611,5.10968017 6.75269112,5.10968017 C6.79971364,5.11631996 6.84001865,5.12295975 6.88032367,5.12295975 C7.14902378,5.12295975 7.39757139,4.99016398 7.54535645,4.76441116 C7.55207395,4.75777137 7.55879145,4.75113158 7.57222646,4.75113158 Z M10.2390508,10.0563158 L12.3416308,10.4879038 C12.3483483,10.4879038 12.3550658,10.4945436 12.3550658,10.5144631 C12.3550658,10.5211029 12.3550658,10.5277427 12.3483483,10.5343825 L9.43294979,13.4227023 C9.43294979,13.4293421 9.42623228,13.4293421 9.41951477,13.4293421 L9.40607975,13.4293421 C9.39936224,13.4227023 9.39264474,13.4160625 9.39264474,13.4027828 L9.89645784,10.3086288 C9.89645784,10.301989 9.90317535,10.2887093 9.90989286,10.2887093 C10.030808,10.2422306 10.1315706,10.1625528 10.2121807,10.0629556 C10.2188982,10.0629556 10.2256157,10.0563158 10.2390508,10.0563158 Z M9.00304338,9.81066447 C9.05678356,10.0164984 9.20456907,10.195773 9.40609477,10.2754507 C9.41952981,10.2820905 9.41952981,10.2953701 9.40609477,10.2953701 C9.40609477,10.2953701 8.79480016,14.0202993 8.79480016,14.0269391 L8.57983942,14.2394128 C8.57983942,14.2460526 8.57312189,14.2460526 8.56640437,14.2460526 C8.55968685,14.2460526 8.55968685,14.2460526 8.55296932,14.2394128 L5.00611709,9.1134852 C4.99939957,9.10684539 4.99939957,9.09356579 5.00611709,9.08692599 C5.02626966,9.06036678 5.03970471,9.03380757 5.05985728,9.00060855 C5.0665748,8.99396875 5.07329232,8.98732895 5.08672737,8.98732895 L8.98289081,9.79074507 C8.99632585,9.79738487 9.00304338,9.80402467 9.00304338,9.81066447 Z M5.18751548,8.53579163 C5.1740805,8.53579163 5.167363,8.52915185 5.167363,8.51587228 C5.167363,8.462754 5.15392802,8.41627551 5.14721053,8.36315723 C5.14721053,8.34987766 5.14721053,8.34323788 5.16064551,8.33659809 C5.16064551,8.33659809 9.93678251,6.29818421 9.9435,6.29818421 C9.9435,6.29818421 9.95021749,6.29818421 9.95693498,6.304824 C9.99052245,6.33802292 10.0173924,6.35794227 10.0442624,6.37786163 C10.0576974,6.37786163 10.0576974,6.3911412 10.0576974,6.39778098 L9.64121285,8.95409807 C9.64121285,8.96737763 9.63449536,8.97401742 9.62106037,8.97401742 C9.39266563,8.98729699 9.19114087,9.12009268 9.0769435,9.31928622 C9.07022601,9.325926 9.06350851,9.33256579 9.05007353,9.33256579 L5.18751548,8.53579163 Z M3.48798236,9.07363495 C3.50813502,9.10683418 3.52828768,9.13339356 3.54844034,9.15995294 C3.55515789,9.16659278 3.55515789,9.17323262 3.55515789,9.17323262 L2.63485302,10.6007993 C2.62813547,10.6074391 2.62141791,10.6140789 2.61470036,10.6140789 C2.61470036,10.6140789 2.60798281,10.6140789 2.60126525,10.6074391 L1.78844124,9.80401788 C1.78172368,9.79737804 1.78172368,9.79073819 1.78172368,9.78409835 C1.78172368,9.7774585 1.78844124,9.77081866 1.79515879,9.77081866 L3.46111214,9.06035526 L3.46782969,9.06035526 C3.47454725,9.06035526 3.4812648,9.06699511 3.48798236,9.07363495 Z M4.6299272,9.40563158 C4.63664468,9.40563158 4.64336216,9.41227139 4.65007964,9.41891119 L8.21034347,14.5846805 C8.21706095,14.5913203 8.21706095,14.6045999 8.21034347,14.6112397 L7.43111591,15.388097 C7.43111591,15.3947368 7.42439844,15.3947368 7.404246,15.388097 L2.95727495,10.9859055 C2.95055747,10.9792657 2.95055747,10.9659861 2.96399243,10.9527064 L3.9313094,9.45211022 C3.93802687,9.44547042 3.94474435,9.43883061 3.95817931,9.43883061 C4.05894149,9.47202964 4.1529862,9.48530925 4.25374838,9.48530925 C4.38138048,9.48530925 4.5022951,9.45875003 4.6299272,9.40563158 Z M4.04551903,7.699176 C4.03880151,7.699176 4.03208399,7.69253622 4.02536647,7.68589643 L2.11759077,4.90382619 C2.11087325,4.89718641 2.11087325,4.88390684 2.11759077,4.87726705 L3.83055839,3.17748189 C3.83055839,3.17084211 3.83727591,3.17084211 3.85071095,3.17084211 C3.85071095,3.17748189 5.87268448,4.02737447 6.10108017,4.12697126 C6.10779769,4.13361104 6.11451521,4.14025083 6.11451521,4.1535304 C6.10108017,4.21328847 6.09436265,4.27304654 6.09436265,4.33280462 C6.09436265,4.53863797 6.17497289,4.73119176 6.31604081,4.87726705 C6.32275833,4.88390684 6.32275833,4.89718641 6.31604081,4.90382619 L4.51574543,7.69253622 C4.50902791,7.699176 4.50231039,7.70581579 4.48887535,7.70581579 C4.41498263,7.68589643 4.33437239,7.67261686 4.26047967,7.67261686 C4.19330447,7.67261686 4.11941175,7.68589643 4.04551903,7.699176 Z M6.34963908,3.72860526 C6.26231182,3.68876621 4.22019732,2.8255867 4.22019732,2.8255867 C4.21347984,2.81894686 4.20676236,2.81894686 4.21347984,2.80566718 C4.21347984,2.79902733 4.21347984,2.79238749 4.22019732,2.78574765 L7.4177187,-0.388097 C7.4177187,-0.394736842 7.42443618,-0.394736842 7.43115366,-0.394736842 C7.43787115,-0.394736842 7.43787115,-0.394736842 7.44458863,-0.388097 L8.82167241,0.973070684 C8.8283899,0.979710526 8.8283899,0.992990211 8.82167241,0.999630053 L7.16245439,3.56924905 C7.15573691,3.57588889 7.14901943,3.58252873 7.13558446,3.58252873 C7.0482572,3.55596936 6.96092993,3.54268968 6.87360267,3.54268968 C6.69223066,3.54268968 6.51085865,3.6090881 6.36979153,3.72196542 C6.36307404,3.72860526 6.36307404,3.72860526 6.34963908,3.72860526 Z M3.44767596,8.15733883 C3.44095846,8.16397863 3.43424095,8.17061842 3.42752345,8.17061842 L-0.374584327,7.373843 C-0.388019337,7.373843 -0.394736842,7.3672032 -0.394736842,7.36056341 C-0.394736842,7.35392361 -0.394736842,7.34728382 -0.388019337,7.34064402 L1.73471221,5.24246874 C1.73471221,5.23582895 1.74142972,5.23582895 1.74814722,5.23582895 C1.76158223,5.24246874 1.76158223,5.24246874 1.76829974,5.24910854 C1.76829974,5.25574833 3.58874357,7.88510723 3.60889608,7.91166641 C3.61561359,7.9183062 3.61561359,7.93158579 3.60889608,7.93822559 C3.54843854,8.00462354 3.48798099,8.07766129 3.44767596,8.15733883 Z M3.23267656,8.60882866 C3.24611148,8.60882866 3.25282895,8.61546841 3.25282895,8.62874791 C3.25282895,8.63538767 3.24611148,8.64202742 3.23267656,8.65530692 L1.39880921,9.43215789 C1.39880921,9.43215789 1.39209175,9.43215789 1.38537428,9.42551814 L-0.085750073,7.96477272 C-0.0924675358,7.95813297 -0.0991849986,7.94485347 -0.0924675358,7.93821371 C-0.085750073,7.93157396 -0.0790326102,7.92493421 -0.0655976845,7.92493421 L3.23267656,8.60882866 Z" mask="url(#safari-pinned-tab-icon-b)"/>
  </g>
</svg>
